<svg xmlns="http://www.w3.org/2000/svg" version="1.1" xmlns:xlink="http://www.w3.org/1999/xlink" xmlns:svgjs="http://svgjs.dev/svgjs" width="100%" height="100%" viewBox="0 0 1000 600"><rect width="1000" height="600" x="0" y="0" fill="0"/><g><rect width="333.3333333333333" height="333.3333333333333" rx="13.333333333333334" ry="13.333333333333334" y="77.77777014838344" fill="#7" transform="matrix(2.2499999313354513,0,0,2.2499999313354517,0,-249.99999084472722)" x="55.55555725097656"/><path d="M153.23604110928667 319.44443625248573L153.23604110928667 319.44443625248573Q149.4953930806061 319.44443625248573 144.31603427166382 318.5236613531182Q139.13667546272154 317.5741122381454 134.38892988785776 316.0778530266732Q129.61241009738876 314.581593815201 127.13782755533853 312.82636666328165L127.13782755533853 312.82636666328165L137.0649319391446 288.16686388959533Q139.76970820603668 291.99383456509156 143.85564682198006 294.20944916669464Q147.94158543792344 296.453837983903 151.99874983826157 296.453837983903L151.99874983826157 296.453837983903Q156.02714002299447 296.453837983903 160.05553020772737 295.30286935969355Q164.1126946080655 294.1806749510894 166.75992244374712 289.7782199634885Q169.3783760638235 285.3757649758875 169.3783760638235 275.5349832388971L169.3783760638235 275.5349832388971L169.3783760638235 171.94780706005116L196.31104187032346 171.94780706005116L196.31104187032346 273.0316264812417Q196.31104187032346 285.8937008567817 192.39774854801152 296.39628955269245Q188.4556810100943 306.8988782486033 179.01773829157725 313.1716572505445Q169.6085697886654 319.44443625248573 153.23604110928667 319.44443625248573ZM277.7420720331385 318.81140350917053L277.7420720331385 318.81140350917053Q266.46257951588643 318.81140350917053 255.98876503558085 314.207529012333Q245.5149505552753 309.60365451549535 237.1992022453624 300.2232602281888Q228.85467971984426 290.8428659408821 223.99183728255952 276.3406612758437Q219.1002206296696 261.8384566108052 219.1002206296696 242.15689313682455L219.1002206296696 242.15689313682455Q219.1002206296696 218.56203634053182 227.35842050837203 202.33337873917932Q235.58784617146924 186.13349535343198 249.39946966198204 177.78897282791388Q263.2398673681001 169.44445030239575 280.0152350659521 169.44445030239575L280.0152350659521 169.44445030239575Q291.4098244456252 169.44445030239575 298.60337834693394 171.63129068839356Q305.82570646384784 173.78935685878622 310.1130645890279 176.81064949733587Q314.4004227142079 179.80316792028032 317.1051989811 182.30652467793578L317.1051989811 182.30652467793578L305.5091900921903 204.05983167549337Q301.04918667337887 199.16821502260345 296.2726668829099 196.23324503086948Q291.5249213080461 193.26950082353025 281.05110682774057 193.26950082353025L281.05110682774057 193.26950082353025Q270.4909697006193 193.26950082353025 263.0959962900739 199.39840874744536Q255.67224866392326 205.49854245575514 251.78772955721655 216.23132487650778Q247.9032104505098 226.93533308165522 247.9032104505098 240.71818235656278L247.9032104505098 240.71818235656278Q247.9032104505098 267.7659450254837 256.9670883661588 281.4912458691807Q266.0309662818079 295.21654671287786 278.77794379492695 295.21654671287786L278.77794379492695 295.21654671287786Q288.61872553191733 295.21654671287786 295.553311492779 292.39667358356485Q302.4878974536406 289.605574669857 305.9120291106636 286.09512036601836L305.9120291106636 286.09512036601836L317.30661849033663 306.61113609255096Q314.4004227142079 308.97062177218015 309.59512870813364 311.81926911709843Q304.78983470205947 314.6679164620167 297.0495707042512 316.7396599855937Q289.3380809220482 318.81140350917053 277.7420720331385 318.81140350917053Z " fill="#f4efea" transform="matrix(2.2499999313354513,0,0,2.2499999313354517,0,-249.99999084472722)"/><path d="MNaN 244.44444105360233 " fill="#7" transform="matrix(2.2499999313354513,0,0,2.2499999313354517,0,-249.99999084472722)"/></g></svg>